<svg width="1600" height="960" viewBox="0 0 1600 960" fill="none" xmlns="http://www.w3.org/2000/svg">
  <rect width="1600" height="960" fill="#2A2523"/>
  <rect width="1600" height="960" fill="url(#bg)"/>
  <rect x="950" y="120" width="500" height="560" rx="28" fill="#EEE3D7"/>
  <rect x="980" y="150" width="440" height="500" rx="18" fill="#C6D2DB"/>
  <rect x="1010" y="180" width="380" height="440" rx="14" fill="url(#view)"/>
  <rect x="120" y="610" width="820" height="170" rx="24" fill="#D9C0A8"/>
  <rect x="160" y="520" width="380" height="130" rx="26" fill="#E5D6CA"/>
  <rect x="280" y="450" width="170" height="82" rx="20" fill="#F1E9E2"/>
  <rect x="570" y="550" width="180" height="96" rx="20" fill="#70554A"/>
  <rect x="620" y="582" width="80" height="18" rx="9" fill="#C59D83"/>
  <rect x="116" y="120" width="220" height="18" rx="9" fill="#C89F88" fill-opacity="0.7"/>
  <rect x="116" y="160" width="320" height="18" rx="9" fill="#C89F88" fill-opacity="0.35"/>
  <rect x="116" y="196" width="260" height="18" rx="9" fill="#C89F88" fill-opacity="0.35"/>
  <defs>
    <linearGradient id="bg" x1="120" y1="80" x2="1410" y2="840" gradientUnits="userSpaceOnUse">
      <stop stop-color="#4C3C35"/>
      <stop offset="1" stop-color="#231D1A"/>
    </linearGradient>
    <linearGradient id="view" x1="1200" y1="180" x2="1200" y2="620" gradientUnits="userSpaceOnUse">
      <stop stop-color="#A7C7DE"/>
      <stop offset="0.55" stop-color="#E6D4C1"/>
      <stop offset="1" stop-color="#A5A984"/>
    </linearGradient>
  </defs>
</svg>
